<?xml version="1.0" encoding="utf-8"?>
<!-- Generator: Adobe Illustrator 24.3.0, SVG Export Plug-In . SVG Version: 6.00 Build 0)  -->
<svg version="1.1" id="Layer_1" xmlns="http://www.w3.org/2000/svg" xmlns:xlink="http://www.w3.org/1999/xlink" x="0px" y="0px"
	 viewBox="0 0 831 141.2" style="enable-background:new 0 0 831 141.2;" xml:space="preserve">
<style type="text/css">
	.st0{enable-background:new    ;}
	.st1{fill:#FFFFFF;}
</style>
<g class="st0">
	<path class="st1" d="M3.6,18.2h18.5l23.8,65.9l24.1-65.9h18.5L54.5,111H37.1L3.6,18.2z"/>
	<path class="st1" d="M171.2,81.7h-56.4c0.8,4.9,3,8.8,6.5,11.6s8,4.3,13.5,4.3c6.6,0,12.2-2.2,16.9-6.7l14.8,6.8
		c-3.7,5.1-8.1,8.9-13.2,11.4c-5.1,2.5-11.3,3.7-18.3,3.7c-11,0-19.9-3.4-26.8-10.2c-6.9-6.8-10.4-15.3-10.4-25.5
		c0-10.5,3.4-19.2,10.3-26.1c6.9-6.9,15.5-10.4,25.9-10.4c11,0,20,3.5,26.9,10.4c6.9,6.9,10.4,16,10.4,27.4L171.2,81.7z M153.6,68.1
		c-1.2-3.8-3.4-6.9-6.9-9.3s-7.4-3.6-11.9-3.6c-4.9,0-9.2,1.3-12.9,4c-2.3,1.7-4.5,4.6-6.4,8.9H153.6z"/>
	<path class="st1" d="M185.4,42.4h17.6v7c4-3.3,7.6-5.6,10.8-6.9c3.2-1.3,6.5-1.9,9.9-1.9c6.9,0,12.8,2.4,17.7,7.1
		c4.1,4,6.1,10,6.1,17.9V111h-17.4v-30c0-8.2-0.4-13.6-1.1-16.3s-2.1-4.7-3.9-6.1c-1.9-1.4-4.2-2.1-6.9-2.1c-3.5,0-6.6,1.2-9.1,3.5
		c-2.5,2.3-4.3,5.6-5.3,9.7c-0.5,2.1-0.8,6.8-0.8,13.9V111h-17.6V42.4z"/>
	<path class="st1" d="M316,15.9h17.6V111H316v-7.2c-3.4,3.2-6.9,5.5-10.3,6.9c-3.4,1.4-7.2,2.1-11.2,2.1c-9,0-16.8-3.4-23.4-10.3
		c-6.6-6.9-9.9-15.4-9.9-25.6c0-10.6,3.2-19.3,9.6-26c6.4-6.8,14.1-10.1,23.3-10.1c4.2,0,8.1,0.8,11.8,2.3c3.7,1.6,7.1,3.9,10.2,7
		V15.9z M297.6,56.5c-5.4,0-9.9,1.9-13.5,5.6c-3.6,3.8-5.4,8.6-5.4,14.5c0,5.9,1.8,10.8,5.5,14.6s8.1,5.7,13.5,5.7
		c5.5,0,10.1-1.9,13.7-5.6c3.6-3.8,5.4-8.7,5.4-14.8c0-6-1.8-10.8-5.4-14.5C307.7,58.4,303.1,56.5,297.6,56.5z"/>
	<path class="st1" d="M384.2,40.6c6.6,0,12.8,1.6,18.6,4.9c5.8,3.2,10.3,7.6,13.6,13.2c3.3,5.5,4.9,11.5,4.9,18
		c0,6.5-1.6,12.5-4.9,18.2c-3.3,5.6-7.7,10-13.4,13.2c-5.7,3.2-11.9,4.8-18.7,4.8c-10,0-18.6-3.5-25.7-10.5
		c-7.1-7-10.6-15.5-10.6-25.5c0-10.7,4-19.6,12-26.8C367,43.7,375.1,40.6,384.2,40.6z M384.5,56.8c-5.5,0-10,1.9-13.6,5.6
		c-3.6,3.7-5.4,8.5-5.4,14.3c0,6,1.8,10.8,5.4,14.5c3.6,3.7,8.1,5.5,13.6,5.5c5.5,0,10.1-1.9,13.7-5.6c3.6-3.7,5.5-8.6,5.5-14.4
		c0-5.9-1.8-10.7-5.4-14.3C394.7,58.7,390.1,56.8,384.5,56.8z"/>
	<path class="st1" d="M431.5,42.4h15V51c1.6-3.4,3.8-6,6.5-7.8c2.7-1.8,5.7-2.6,8.9-2.6c2.3,0,4.7,0.6,7.1,1.8l-5.5,14.8
		c-2.1-1-3.8-1.5-5.1-1.5c-2.7,0-5,1.6-6.8,4.9s-2.8,9.7-2.8,19.3l0.1,3.3V111h-17.4V42.4z"/>
	<path class="st1" d="M520.6,52l-10.9,10.7c-4.4-4.3-8.4-6.4-12-6.4c-2,0-3.5,0.4-4.6,1.2c-1.1,0.8-1.7,1.8-1.7,3.1
		c0,0.9,0.4,1.8,1.1,2.6c0.7,0.8,2.5,1.8,5.2,3.2l6.4,3.2c6.8,3.3,11.4,6.6,14,10s3.8,7.4,3.8,12c0,6.1-2.3,11.2-6.8,15.3
		c-4.6,4.1-10.7,6.1-18.4,6.1c-10.2,0-18.3-3.9-24.4-11.7L483,89.5c2.1,2.4,4.5,4.3,7.2,5.7c2.8,1.4,5.2,2.2,7.4,2.2
		c2.3,0,4.2-0.5,5.6-1.6c1.4-1.1,2.1-2.4,2.1-3.8c0-2.6-2.6-5.2-7.7-7.8l-5.9-2.9c-11.3-5.6-17-12.6-17-21c0-5.4,2.1-10.1,6.4-13.9
		c4.3-3.8,9.7-5.8,16.4-5.8c4.5,0,8.8,1,12.8,2.9C514.4,45.5,517.8,48.3,520.6,52z"/>
	<path class="st1" d="M624.6,34.5L612,46.3c-8.6-8.9-18.2-13.3-28.9-13.3c-9,0-16.7,3-22.8,9.1s-9.3,13.5-9.3,22.4
		c0,6.2,1.4,11.7,4.1,16.5c2.7,4.8,6.6,8.6,11.6,11.3s10.6,4.1,16.7,4.1c5.2,0,10-1,14.3-2.9c4.3-1.9,9.1-5.4,14.3-10.4l12.2,12.5
		c-7,6.7-13.6,11.3-19.8,13.9c-6.2,2.6-13.3,3.9-21.3,3.9c-14.7,0-26.7-4.6-36.1-13.7c-9.4-9.1-14.1-20.9-14.1-35.1
		c0-9.2,2.1-17.5,6.4-24.6c4.3-7.2,10.4-13,18.3-17.3c8-4.4,16.5-6.6,25.7-6.6c7.8,0,15.3,1.6,22.5,4.8
		C613.1,24,619.3,28.6,624.6,34.5z"/>
	<path class="st1" d="M645.2,14.1c3.1,0,5.7,1.1,7.9,3.3c2.2,2.2,3.3,4.8,3.3,7.9c0,3.1-1.1,5.7-3.3,7.8c-2.2,2.2-4.8,3.2-7.8,3.2
		c-3.1,0-5.8-1.1-8-3.3s-3.3-4.9-3.3-8c0-3,1.1-5.6,3.3-7.8C639.5,15.2,642.2,14.1,645.2,14.1z M636.5,42.4H654V111h-17.6V42.4z"/>
	<path class="st1" d="M672.1,17.1h17.6v25.3h10.4v14.8h-10.4V111h-17.6V57.2h-9V42.4h9V17.1z"/>
	<path class="st1" d="M701.7,42.4h17.9l18.2,43l20.1-43h18L732,136.1h-18.1l14.4-30.2L701.7,42.4z"/>
</g>
</svg>
